<?xml version="1.0" standalone="no"?>
<!DOCTYPE svg PUBLIC "-//W3C//DTD SVG 20010904//EN"
 "http://www.w3.org/TR/2001/REC-SVG-20010904/DTD/svg10.dtd">
<svg version="1.0" xmlns="http://www.w3.org/2000/svg"
 width="180.000000pt" height="180.000000pt" viewBox="0 0 180.000000 180.000000"
 preserveAspectRatio="xMidYMid meet">
<metadata>
Created by potrace 1.11, written by Peter Selinger 2001-2013
</metadata>
<g transform="translate(0.000000,180.000000) scale(0.100000,-0.100000)"
fill="#000000" stroke="none">
<path d="M156 1632 c-20 -8 -36 -23 -40 -35 -3 -12 -6 -332 -6 -710 l0 -688
25 -24 24 -25 746 0 746 0 24 25 25 24 0 695 0 695 -24 28 -24 28 -731 1
c-597 0 -736 -2 -765 -14z m1503 -26 c21 -19 21 -20 21 -703 0 -613 -2 -686
-16 -708 l-16 -25 -739 0 c-726 0 -739 0 -759 20 -20 20 -20 33 -20 708 0 644
1 690 18 704 9 9 23 17 30 19 7 2 338 4 736 4 698 0 725 -1 745 -19z"/>
<path d="M669 1234 c0 -48 -1 -437 0 -461 1 -18 7 -23 26 -23 l25 0 0 120 0
120 43 0 42 0 70 -120 c67 -115 71 -120 104 -120 32 0 33 1 19 23 -58 88 -128
207 -128 216 0 6 7 11 16 11 26 0 70 31 88 60 20 35 21 92 1 130 -25 49 -66
63 -192 68 l-113 4 -1 -28z m231 -43 c35 -25 46 -62 31 -99 -16 -38 -51 -53
-140 -57 l-71 -4 0 88 c0 48 2 90 5 93 14 13 151 -3 175 -21z"/>
<path d="M1100 896 c0 -115 -4 -206 -11 -225 -24 -68 -116 -77 -150 -15 -13
24 -43 32 -54 14 -10 -16 26 -67 60 -86 41 -22 126 -15 156 12 43 38 49 71 49
289 l0 205 -25 0 -25 0 0 -194z"/>
</g>
</svg>
